<svg xmlns="http://www.w3.org/2000/svg" fill="white" viewBox="0.96 2.688 23.567999999999998 18.432000000000002" style="max-height: 500px" width="23.567999999999998" height="18.432000000000002">
  <path d="M23.643 4.937c-.835.37-1.73.62-2.675.733&#10;           .962-.576 1.699-1.49 2.048-2.578-.901.534-1.897.923-2.958 1.136&#10;           -.85-.904-2.062-1.466-3.404-1.466-2.58 0-4.67 2.044-4.67 4.563&#10;           0 .358.045.705.128 1.038-3.878-.19-7.31-2.02-9.613-4.792&#10;           -.403.67-.632 1.452-.632 2.281 0 1.574.82 2.964 2.06 3.777&#10;           -.76-.022-1.48-.229-2.11-.57v.057c0 2.2 1.63 4.03 3.794 4.447&#10;           -.398.104-.82.158-1.253.158-.307 0-.603-.03-.897-.086&#10;           .61 1.84 2.377 3.18 4.464 3.22-1.65 1.25-3.73 1.99-5.99 1.99&#10;           -.39 0-.77-.022-1.15-.067 2.16 1.35 4.72 2.14 7.48 2.14&#10;           8.98 0 13.89-7.29 13.89-13.61 0-.21-.01-.42-.02-.63&#10;           .96-.68 1.8-1.52 2.46-2.48z"/>
</svg>